<?xml version="1.0" encoding="UTF-8"?>
<svg xmlns="http://www.w3.org/2000/svg"
     xmlns:xlink="http://www.w3.org/1999/xlink"
     xmlns:gadfly="http://www.gadflyjl.org/ns"
     version="1.2"
     width="100mm" height="150mm" viewBox="0 0 100 150"
     stroke="none"
     fill="#000000"
     stroke-width="0.3"
     font-size="3.88"
>
<defs>
  <marker id="arrow" markerWidth="15" markerHeight="7" refX="5" refY="3.5" orient="auto" markerUnits="strokeWidth">
    <path d="M0,0 L15,3.5 L0,7 z" stroke="context-stroke" fill="context-stroke"/>
  </marker>
</defs>
<g class="plotroot xscalable yscalable" id="img-f4d995d7-1">
  <g font-size="3.88" font-family="'PT Sans','Helvetica Neue','Helvetica',sans-serif" fill="#564A55" stroke="#000000" stroke-opacity="0.000" id="img-f4d995d7-2">
    <g transform="translate(52.83,138.39)">
      <g class="primitive">
        <text text-anchor="middle" dy="0.6em">Initial shock ϵ (%)</text>
      </g>
    </g>
  </g>
  <g class="guide xlabels" font-size="2.82" font-family="'PT Sans Caption','Helvetica Neue','Helvetica',sans-serif" fill="#6C606B" id="img-f4d995d7-3">
    <g transform="translate(20.63,131.72)">
      <g class="primitive">
        <text text-anchor="middle" dy="0.6em">0</text>
      </g>
    </g>
    <g transform="translate(33.51,131.72)">
      <g class="primitive">
        <text text-anchor="middle" dy="0.6em">10</text>
      </g>
    </g>
    <g transform="translate(46.39,131.72)">
      <g class="primitive">
        <text text-anchor="middle" dy="0.6em">20</text>
      </g>
    </g>
    <g transform="translate(59.27,131.72)">
      <g class="primitive">
        <text text-anchor="middle" dy="0.6em">30</text>
      </g>
    </g>
    <g transform="translate(72.15,131.72)">
      <g class="primitive">
        <text text-anchor="middle" dy="0.6em">40</text>
      </g>
    </g>
    <g transform="translate(85.03,131.72)">
      <g class="primitive">
        <text text-anchor="middle" dy="0.6em">50</text>
      </g>
    </g>
  </g>
  <g class="guide colorkey" id="img-f4d995d7-4">
    <g fill="#4C404B" font-size="2.82" font-family="'PT Sans','Helvetica Neue','Helvetica',sans-serif" id="img-f4d995d7-5">
      <g transform="translate(90.85,102.72)" id="img-f4d995d7-6" class="color_L_1">
        <g class="primitive">
          <text dy="0.35em">L_1</text>
        </g>
      </g>
      <g transform="translate(90.85,106.35)" id="img-f4d995d7-7" class="color_L_2">
        <g class="primitive">
          <text dy="0.35em">L_2</text>
        </g>
      </g>
      <g transform="translate(90.85,109.98)" id="img-f4d995d7-8" class="color_L_3">
        <g class="primitive">
          <text dy="0.35em">L_3</text>
        </g>
      </g>
      <g transform="translate(90.85,113.6)" id="img-f4d995d7-9" class="color_L_4">
        <g class="primitive">
          <text dy="0.35em">L_4</text>
        </g>
      </g>
      <g transform="translate(90.85,117.23)" id="img-f4d995d7-10" class="color_L_5">
        <g class="primitive">
          <text dy="0.35em">L_5</text>
        </g>
      </g>
    </g>
    <g stroke="#000000" stroke-opacity="0.000" id="img-f4d995d7-11">
      <g transform="translate(88.94,102.72)" id="img-f4d995d7-12" class="color_L_1" fill="#00BFFF">
        <path d="M-0.91,-0.91 L 0.91 -0.91 0.91 0.91 -0.91 0.91 z" class="primitive"/>
      </g>
      <g transform="translate(88.94,106.35)" id="img-f4d995d7-13" class="color_L_2" fill="#D4CA3A">
        <path d="M-0.91,-0.91 L 0.91 -0.91 0.91 0.91 -0.91 0.91 z" class="primitive"/>
      </g>
      <g transform="translate(88.94,109.98)" id="img-f4d995d7-14" class="color_L_3" fill="#FF6DAE">
        <path d="M-0.91,-0.91 L 0.91 -0.91 0.91 0.91 -0.91 0.91 z" class="primitive"/>
      </g>
      <g transform="translate(88.94,113.6)" id="img-f4d995d7-15" class="color_L_4" fill="#00B78D">
        <path d="M-0.91,-0.91 L 0.91 -0.91 0.91 0.91 -0.91 0.91 z" class="primitive"/>
      </g>
      <g transform="translate(88.94,117.23)" id="img-f4d995d7-16" class="color_L_5" fill="#BEA9FF">
        <path d="M-0.91,-0.91 L 0.91 -0.91 0.91 0.91 -0.91 0.91 z" class="primitive"/>
      </g>
    </g>
    <g fill="#362A35" font-size="3.88" font-family="'PT Sans','Helvetica Neue','Helvetica',sans-serif" stroke="#000000" stroke-opacity="0.000" id="img-f4d995d7-17">
      <g transform="translate(88.03,98.9)" id="img-f4d995d7-18">
        <g class="primitive">
          <text>yc</text>
        </g>
      </g>
    </g>
  </g>
  <g clip-path="url(#img-f4d995d7-19)">
    <g id="img-f4d995d7-20">
      <g pointer-events="visible" fill="#000000" fill-opacity="0.000" stroke="#000000" stroke-opacity="0.000" class="guide background" id="img-f4d995d7-21">
        <g transform="translate(52.83,108.16)" id="img-f4d995d7-22">
          <path d="M-34.2,-22.55 L 34.2 -22.55 34.2 22.55 -34.2 22.55 z" class="primitive"/>
        </g>
      </g>
      <g class="guide ygridlines xfixed" stroke-dasharray="0.5,0.5" stroke-width="0.2" stroke="#D0D0E0" id="img-f4d995d7-23">
        <g transform="translate(52.83,128.72)" id="img-f4d995d7-24">
          <path fill="none" d="M-34.2,0 L 34.2 0" class="primitive"/>
        </g>
        <g transform="translate(52.83,115.01)" id="img-f4d995d7-25">
          <path fill="none" d="M-34.2,0 L 34.2 0" class="primitive"/>
        </g>
        <g transform="translate(52.83,101.31)" id="img-f4d995d7-26">
          <path fill="none" d="M-34.2,0 L 34.2 0" class="primitive"/>
        </g>
        <g transform="translate(52.83,87.61)" id="img-f4d995d7-27">
          <path fill="none" d="M-34.2,0 L 34.2 0" class="primitive"/>
        </g>
      </g>
      <g class="guide xgridlines yfixed" stroke-dasharray="0.5,0.5" stroke-width="0.2" stroke="#D0D0E0" id="img-f4d995d7-28">
        <g transform="translate(20.63,108.16)" id="img-f4d995d7-29">
          <path fill="none" d="M0,-22.55 L 0 22.55" class="primitive"/>
        </g>
        <g transform="translate(33.51,108.16)" id="img-f4d995d7-30">
          <path fill="none" d="M0,-22.55 L 0 22.55" class="primitive"/>
        </g>
        <g transform="translate(46.39,108.16)" id="img-f4d995d7-31">
          <path fill="none" d="M0,-22.55 L 0 22.55" class="primitive"/>
        </g>
        <g transform="translate(59.27,108.16)" id="img-f4d995d7-32">
          <path fill="none" d="M0,-22.55 L 0 22.55" class="primitive"/>
        </g>
        <g transform="translate(72.15,108.16)" id="img-f4d995d7-33">
          <path fill="none" d="M0,-22.55 L 0 22.55" class="primitive"/>
        </g>
        <g transform="translate(85.03,108.16)" id="img-f4d995d7-34">
          <path fill="none" d="M0,-22.55 L 0 22.55" class="primitive"/>
        </g>
      </g>
      <g class="plotpanel" id="img-f4d995d7-35">
        <metadata>
          <boundingbox value="18.63166666666666mm 85.61166666666666mm 68.40166666666667mm 45.10333333333334mm"/>
          <unitbox value="-1.5527548458890814 1.5729867812829454 53.10550969177817 -1.6459735625658907"/>
        </metadata>
        <g stroke-width="0.3" fill="#000000" fill-opacity="0.000" class="geometry" id="img-f4d995d7-36">
          <g transform="translate(49.61,115.65)" id="img-f4d995d7-37" class="color_L_1" stroke="#00BFFF" stroke-dasharray="none">
            <path fill="none" d="M-28.98,13.07 L -28.34 13.07 -27.69 13.07 -27.05 13.07 -26.4 13.07 -25.76 13.07 -25.12 13.07 -24.47 13.07 -23.83 13.07 -23.18 13.07 -22.54 13.07 -21.9 13.07 -21.25 13.07 -20.61 13.07 -19.96 13.07 -19.32 13.07 -18.68 13.07 -18.03 13.07 -17.39 13.07 -16.74 13.07 -16.1 13.07 -15.46 13.07 -14.81 13.07 -14.17 13.07 -13.52 13.07 -12.88 13.07 -12.24 13.07 -11.59 13.07 -10.95 13.07 -10.3 13.07 -9.66 13.07 -9.02 13.07 -8.37 13.07 -7.73 13.07 -7.08 13.07 -6.44 13.07 -5.8 13.07 -5.15 13.07 -4.51 13.07 -3.86 13.07 -3.22 13.07 -2.58 13.07 -1.93 13.07 -1.29 13.07 -0.64 13.07 0 8.31 0.64 7.27 1.29 6.24 1.93 5.21 2.58 4.18 3.22 3.15 3.86 2.12 4.51 1.09 5.15 0.06 5.8 -0.96 6.44 -1.99 7.08 -3.01 7.73 -4.03 8.37 -5.05 9.02 -6.07 9.66 -7.09 10.3 -8.11 10.95 -9.13 11.59 -10.14 12.24 -11.16 12.88 -12.17 13.52 -13.18 14.17 -14.19 14.81 -15.2 15.46 -16.21 16.1 -17.22 16.74 -18.23 17.39 -19.23 18.03 -20.24 18.68 -21.24 19.32 -22.24 19.96 -23.24 20.61 -24.24 21.25 -24.77 21.9 -24.77 22.54 -24.77 23.18 -24.77 23.83 -24.77 24.47 -24.77 25.12 -24.77 25.76 -24.77 26.4 -24.77 27.05 -24.77 27.69 -24.77 28.34 -24.77 28.98 -24.77" class="primitive"/>
          </g>
          <g transform="translate(49.61,125.45)" id="img-f4d995d7-38" class="color_L_2" stroke="#D4CA3A" stroke-dasharray="none">
            <path fill="none" d="M-28.98,3.27 L -28.34 3.27 -27.69 3.27 -27.05 3.27 -26.4 3.27 -25.76 3.27 -25.12 3.27 -24.47 3.27 -23.83 3.27 -23.18 3.27 -22.54 3.27 -21.9 3.27 -21.25 3.27 -20.61 3.27 -19.96 3.27 -19.32 3.27 -18.68 3.27 -18.03 3.27 -17.39 3.27 -16.74 3.27 -16.1 3.27 -15.46 3.27 -14.81 3.27 -14.17 3.27 -13.52 3.27 -12.88 3.27 -12.24 3.27 -11.59 3.27 -10.95 3.27 -10.3 3.27 -9.66 3.27 -9.02 3.27 -8.37 3.27 -7.73 3.27 -7.08 3.27 -6.44 3.27 -5.8 3.27 -5.15 3.27 -4.51 3.27 -3.86 3.27 -3.22 3.27 -2.58 3.27 -1.93 3.27 -1.29 3.27 -0.64 3.27 0 -1.06 0.64 -1.92 1.29 -2.75 1.93 -3.55 2.58 -4.32 3.22 -5.06 3.86 -5.78 4.51 -6.46 5.15 -7.11 5.8 -7.74 6.44 -8.34 7.08 -8.91 7.73 -9.45 8.37 -9.96 9.02 -10.45 9.66 -10.91 10.3 -11.34 10.95 -11.74 11.59 -11.18 12.24 -10.17 12.88 -9.17 13.52 -8.16 14.17 -7.16 14.81 -6.16 15.46 -5.16 16.1 -4.16 16.74 -3.17 17.39 -2.18 18.03 -1.19 18.68 -0.2 19.32 0.79 19.96 1.77 20.61 2.75 21.25 3.27 21.9 3.27 22.54 3.27 23.18 3.27 23.83 3.27 24.47 3.27 25.12 3.27 25.76 3.27 26.4 3.27 27.05 3.27 27.69 3.27 28.34 3.27 28.98 3.27" class="primitive"/>
          </g>
          <g transform="translate(49.61,127.89)" id="img-f4d995d7-39" class="color_L_3" stroke="#FF6DAE" stroke-dasharray="none">
            <path fill="none" d="M-28.98,0.83 L -28.34 0.83 -27.69 0.83 -27.05 0.83 -26.4 0.83 -25.76 0.83 -25.12 0.83 -24.47 0.83 -23.83 0.83 -23.18 0.83 -22.54 0.83 -21.9 0.83 -21.25 0.83 -20.61 0.83 -19.96 0.83 -19.32 0.83 -18.68 0.83 -18.03 0.83 -17.39 0.83 -16.74 0.83 -16.1 0.83 -15.46 0.83 -14.81 0.83 -14.17 0.83 -13.52 0.83 -12.88 0.83 -12.24 0.83 -11.59 0.83 -10.95 0.83 -10.3 0.83 -9.66 0.83 -9.02 0.83 -8.37 0.83 -7.73 0.83 -7.08 0.83 -6.44 0.83 -5.8 0.83 -5.15 0.83 -4.51 0.83 -3.86 0.83 -3.22 0.83 -2.58 0.83 -1.93 0.83 -1.29 0.83 -0.64 0.83 0 -2.6 0.64 -3.09 1.29 -3.48 1.93 -3.8 2.58 -4.04 3.22 -4.22 3.86 -4.32 4.51 -4.37 5.15 -4.35 5.8 -4.29 6.44 -4.17 7.08 -4.01 7.73 -3.8 8.37 -3.56 9.02 -3.28 9.66 -2.46 10.3 -1.03 10.95 0.38 11.59 0.83 12.24 0.83 12.88 0.83 13.52 0.83 14.17 0.83 14.81 0.83 15.46 0.83 16.1 0.83 16.74 0.83 17.39 0.83 18.03 0.83 18.68 0.83 19.32 0.83 19.96 0.83 20.61 0.83 21.25 0.83 21.9 0.83 22.54 0.83 23.18 0.83 23.83 0.83 24.47 0.83 25.12 0.83 25.76 0.83 26.4 0.83 27.05 0.83 27.69 0.83 28.34 0.83 28.98 0.83" class="primitive"/>
          </g>
          <g transform="translate(49.61,128.51)" id="img-f4d995d7-40" class="color_L_4" stroke="#00B78D" stroke-dasharray="none">
            <path fill="none" d="M-28.98,0.21 L -28.34 0.21 -27.69 0.21 -27.05 0.21 -26.4 0.21 -25.76 0.21 -25.12 0.21 -24.47 0.21 -23.83 0.21 -23.18 0.21 -22.54 0.21 -21.9 0.21 -21.25 0.21 -20.61 0.21 -19.96 0.21 -19.32 0.21 -18.68 0.21 -18.03 0.21 -17.39 0.21 -16.74 0.21 -16.1 0.21 -15.46 0.21 -14.81 0.21 -14.17 0.21 -13.52 0.21 -12.88 0.21 -12.24 0.21 -11.59 0.21 -10.95 0.21 -10.3 0.21 -9.66 0.21 -9.02 0.21 -8.37 0.21 -7.73 0.21 -7.08 0.21 -6.44 0.21 -5.8 0.21 -5.15 0.21 -4.51 0.21 -3.86 0.21 -3.22 0.21 -2.58 0.21 -1.93 0.21 -1.29 0.21 -0.64 0.21 0 0.21 0.64 0.21 1.29 -2.3 1.93 -2.25 2.58 -2.14 3.22 -1.98 3.86 -1.79 4.51 -1.57 5.15 -1.35 5.8 -1.11 6.44 -0.88 7.08 -0.66 7.73 -0.45 8.37 0.21 9.02 0.21 9.66 0.21 10.3 0.21 10.95 0.21 11.59 0.21 12.24 0.21 12.88 0.21 13.52 0.21 14.17 0.21 14.81 0.21 15.46 0.21 16.1 0.21 16.74 0.21 17.39 0.21 18.03 0.21 18.68 0.21 19.32 0.21 19.96 0.21 20.61 0.21 21.25 0.21 21.9 0.21 22.54 0.21 23.18 0.21 23.83 0.21 24.47 0.21 25.12 0.21 25.76 0.21 26.4 0.21 27.05 0.21 27.69 0.21 28.34 0.21 28.98 0.21" class="primitive"/>
          </g>
          <g transform="translate(49.61,128.72)" id="img-f4d995d7-41" class="color_L_5" stroke="#BEA9FF" stroke-dasharray="none">
            <path fill="none" d="M-28.98,-0 L -28.34 -0 -27.69 -0 -27.05 -0 -26.4 -0 -25.76 -0 -25.12 -0 -24.47 -0 -23.83 -0 -23.18 -0 -22.54 -0 -21.9 -0 -21.25 -0 -20.61 -0 -19.96 -0 -19.32 -0 -18.68 -0 -18.03 -0 -17.39 -0 -16.74 -0 -16.1 -0 -15.46 -0 -14.81 -0 -14.17 -0 -13.52 -0 -12.88 -0 -12.24 -0 -11.59 -0 -10.95 -0 -10.3 -0 -9.66 -0 -9.02 -0 -8.37 -0 -7.73 -0 -7.08 -0 -6.44 -0 -5.8 -0 -5.15 -0 -4.51 -0 -3.86 -0 -3.22 -0 -2.58 -0 -1.93 -0 -1.29 -0 -0.64 -0 0 -0 0.64 -0 1.29 -0 1.93 -0 2.58 -0 3.22 -0 3.86 -0 4.51 -0 5.15 -0 5.8 -0 6.44 -0 7.08 -0 7.73 -0 8.37 -0 9.02 -0 9.66 -0 10.3 -0 10.95 -0 11.59 -0 12.24 -0 12.88 -0 13.52 -0 14.17 -0 14.81 -0 15.46 -0 16.1 -0 16.74 -0 17.39 -0 18.03 -0 18.68 -0 19.32 -0 19.96 -0 20.61 -0 21.25 -0 21.9 -0 22.54 -0 23.18 -0 23.83 -0 24.47 -0 25.12 -0 25.76 -0 26.4 -0 27.05 -0 27.69 -0 28.34 -0 28.98 -0" class="primitive"/>
          </g>
        </g>
      </g>
    </g>
  </g>
  <g class="guide ylabels" font-size="2.82" font-family="'PT Sans Caption','Helvetica Neue','Helvetica',sans-serif" fill="#6C606B" id="img-f4d995d7-42">
    <g transform="translate(17.63,128.72)" id="img-f4d995d7-43">
      <g class="primitive">
        <text text-anchor="end" dy="0.35em">0.0</text>
      </g>
    </g>
    <g transform="translate(17.63,115.01)" id="img-f4d995d7-44">
      <g class="primitive">
        <text text-anchor="end" dy="0.35em">0.5</text>
      </g>
    </g>
    <g transform="translate(17.63,101.31)" id="img-f4d995d7-45">
      <g class="primitive">
        <text text-anchor="end" dy="0.35em">1.0</text>
      </g>
    </g>
    <g transform="translate(17.63,87.61)" id="img-f4d995d7-46">
      <g class="primitive">
        <text text-anchor="end" dy="0.35em">1.5</text>
      </g>
    </g>
  </g>
  <g font-size="3.88" font-family="'PT Sans','Helvetica Neue','Helvetica',sans-serif" fill="#564A55" stroke="#000000" stroke-opacity="0.000" id="img-f4d995d7-47">
    <g transform="translate(8.81,106.16)" id="img-f4d995d7-48">
      <g class="primitive">
        <text text-anchor="middle" dy="0.35em" transform="rotate(-90,0, 2)">Loss</text>
      </g>
    </g>
  </g>
  <g font-size="3.88" font-family="'PT Sans','Helvetica Neue','Helvetica',sans-serif" fill="#564A55" stroke="#000000" stroke-opacity="0.000" id="img-f4d995d7-49">
    <g transform="translate(52.83,80)" id="img-f4d995d7-50">
      <g class="primitive">
        <text text-anchor="middle" dy="0.6em">Bank B</text>
      </g>
    </g>
  </g>
</g>
<g class="plotroot xscalable yscalable" id="img-f4d995d7-51">
  <g font-size="3.88" font-family="'PT Sans','Helvetica Neue','Helvetica',sans-serif" fill="#564A55" stroke="#000000" stroke-opacity="0.000" id="img-f4d995d7-52">
    <g transform="translate(52.15,63.39)" id="img-f4d995d7-53">
      <g class="primitive">
        <text text-anchor="middle" dy="0.6em">Initial shock ϵ (%)</text>
      </g>
    </g>
  </g>
  <g class="guide xlabels" font-size="2.82" font-family="'PT Sans Caption','Helvetica Neue','Helvetica',sans-serif" fill="#6C606B" id="img-f4d995d7-54">
    <g transform="translate(19.87,56.72)" id="img-f4d995d7-55">
      <g class="primitive">
        <text text-anchor="middle" dy="0.6em">0</text>
      </g>
    </g>
    <g transform="translate(32.78,56.72)" id="img-f4d995d7-56">
      <g class="primitive">
        <text text-anchor="middle" dy="0.6em">10</text>
      </g>
    </g>
    <g transform="translate(45.69,56.72)" id="img-f4d995d7-57">
      <g class="primitive">
        <text text-anchor="middle" dy="0.6em">20</text>
      </g>
    </g>
    <g transform="translate(58.6,56.72)" id="img-f4d995d7-58">
      <g class="primitive">
        <text text-anchor="middle" dy="0.6em">30</text>
      </g>
    </g>
    <g transform="translate(71.51,56.72)" id="img-f4d995d7-59">
      <g class="primitive">
        <text text-anchor="middle" dy="0.6em">40</text>
      </g>
    </g>
    <g transform="translate(84.42,56.72)" id="img-f4d995d7-60">
      <g class="primitive">
        <text text-anchor="middle" dy="0.6em">50</text>
      </g>
    </g>
  </g>
  <g class="guide colorkey" id="img-f4d995d7-61">
    <g fill="#4C404B" font-size="2.82" font-family="'PT Sans','Helvetica Neue','Helvetica',sans-serif" id="img-f4d995d7-62">
      <g transform="translate(90.23,27.72)" id="img-f4d995d7-63" class="color_Γ_1">
        <g class="primitive">
          <text dy="0.35em">Γ_1</text>
        </g>
      </g>
      <g transform="translate(90.23,31.35)" id="img-f4d995d7-64" class="color_Γ_2">
        <g class="primitive">
          <text dy="0.35em">Γ_2</text>
        </g>
      </g>
      <g transform="translate(90.23,34.98)" id="img-f4d995d7-65" class="color_Γ_3">
        <g class="primitive">
          <text dy="0.35em">Γ_3</text>
        </g>
      </g>
      <g transform="translate(90.23,38.6)" id="img-f4d995d7-66" class="color_Γ_4">
        <g class="primitive">
          <text dy="0.35em">Γ_4</text>
        </g>
      </g>
      <g transform="translate(90.23,42.23)" id="img-f4d995d7-67" class="color_Γ_5">
        <g class="primitive">
          <text dy="0.35em">Γ_5</text>
        </g>
      </g>
    </g>
    <g stroke="#000000" stroke-opacity="0.000" id="img-f4d995d7-68">
      <g transform="translate(88.33,27.72)" id="img-f4d995d7-69" class="color_Γ_1" fill="#00BFFF">
        <path d="M-0.91,-0.91 L 0.91 -0.91 0.91 0.91 -0.91 0.91 z" class="primitive"/>
      </g>
      <g transform="translate(88.33,31.35)" id="img-f4d995d7-70" class="color_Γ_2" fill="#D4CA3A">
        <path d="M-0.91,-0.91 L 0.91 -0.91 0.91 0.91 -0.91 0.91 z" class="primitive"/>
      </g>
      <g transform="translate(88.33,34.98)" id="img-f4d995d7-71" class="color_Γ_3" fill="#FF6DAE">
        <path d="M-0.91,-0.91 L 0.91 -0.91 0.91 0.91 -0.91 0.91 z" class="primitive"/>
      </g>
      <g transform="translate(88.33,38.6)" id="img-f4d995d7-72" class="color_Γ_4" fill="#00B78D">
        <path d="M-0.91,-0.91 L 0.91 -0.91 0.91 0.91 -0.91 0.91 z" class="primitive"/>
      </g>
      <g transform="translate(88.33,42.23)" id="img-f4d995d7-73" class="color_Γ_5" fill="#BEA9FF">
        <path d="M-0.91,-0.91 L 0.91 -0.91 0.91 0.91 -0.91 0.91 z" class="primitive"/>
      </g>
    </g>
    <g fill="#362A35" font-size="3.88" font-family="'PT Sans','Helvetica Neue','Helvetica',sans-serif" stroke="#000000" stroke-opacity="0.000" id="img-f4d995d7-74">
      <g transform="translate(87.42,23.9)" id="img-f4d995d7-75">
        <g class="primitive">
          <text>yc</text>
        </g>
      </g>
    </g>
  </g>
  <g clip-path="url(#img-f4d995d7-76)">
    <g id="img-f4d995d7-77">
      <g pointer-events="visible" fill="#000000" fill-opacity="0.000" stroke="#000000" stroke-opacity="0.000" class="guide background" id="img-f4d995d7-78">
        <g transform="translate(52.15,33.16)" id="img-f4d995d7-79">
          <path d="M-34.27,-22.55 L 34.27 -22.55 34.27 22.55 -34.27 22.55 z" class="primitive"/>
        </g>
      </g>
      <g class="guide ygridlines xfixed" stroke-dasharray="0.5,0.5" stroke-width="0.2" stroke="#D0D0E0" id="img-f4d995d7-80">
        <g transform="translate(52.15,53.72)" id="img-f4d995d7-81">
          <path fill="none" d="M-34.27,0 L 34.27 0" class="primitive"/>
        </g>
        <g transform="translate(52.15,33.16)" id="img-f4d995d7-82">
          <path fill="none" d="M-34.27,0 L 34.27 0" class="primitive"/>
        </g>
        <g transform="translate(52.15,12.61)" id="img-f4d995d7-83">
          <path fill="none" d="M-34.27,0 L 34.27 0" class="primitive"/>
        </g>
      </g>
      <g class="guide xgridlines yfixed" stroke-dasharray="0.5,0.5" stroke-width="0.2" stroke="#D0D0E0" id="img-f4d995d7-84">
        <g transform="translate(19.87,33.16)" id="img-f4d995d7-85">
          <path fill="none" d="M0,-22.55 L 0 22.55" class="primitive"/>
        </g>
        <g transform="translate(32.78,33.16)" id="img-f4d995d7-86">
          <path fill="none" d="M0,-22.55 L 0 22.55" class="primitive"/>
        </g>
        <g transform="translate(45.69,33.16)" id="img-f4d995d7-87">
          <path fill="none" d="M0,-22.55 L 0 22.55" class="primitive"/>
        </g>
        <g transform="translate(58.6,33.16)" id="img-f4d995d7-88">
          <path fill="none" d="M0,-22.55 L 0 22.55" class="primitive"/>
        </g>
        <g transform="translate(71.51,33.16)" id="img-f4d995d7-89">
          <path fill="none" d="M0,-22.55 L 0 22.55" class="primitive"/>
        </g>
        <g transform="translate(84.42,33.16)" id="img-f4d995d7-90">
          <path fill="none" d="M0,-22.55 L 0 22.55" class="primitive"/>
        </g>
      </g>
      <g class="plotpanel" id="img-f4d995d7-91">
        <metadata>
          <boundingbox value="17.870833333333323mm 10.611666666666665mm 68.54916666666666mm 45.10333333333334mm"/>
          <unitbox value="-1.5492066770807782 1.0486578541886302 53.09841335416156 -1.0973157083772604"/>
        </metadata>
        <g stroke-width="0.3" fill="#000000" fill-opacity="0.000" class="geometry" id="img-f4d995d7-92">
          <g transform="translate(48.92,39.57)" id="img-f4d995d7-93" class="color_Γ_1" stroke="#00BFFF" stroke-dasharray="none">
            <path fill="none" d="M-29.05,14.14 L -28.4 14.14 -27.76 14.14 -27.11 14.14 -26.47 14.14 -25.82 14.14 -25.17 14.14 -24.53 14.14 -23.88 14.14 -23.24 14.14 -22.59 14.14 -21.95 14.14 -21.3 14.14 -20.66 14.14 -20.01 14.14 -19.36 14.14 -18.72 14.14 -18.07 14.14 -17.43 14.14 -16.78 14.14 -16.14 14.14 -15.49 14.14 -14.85 14.14 -14.2 14.14 -13.56 14.14 -12.91 14.14 -12.26 14.14 -11.62 14.14 -10.97 14.14 -10.33 14.14 -9.68 14.14 -9.04 14.14 -8.39 14.14 -7.75 14.14 -7.1 14.14 -6.45 14.14 -5.81 14.14 -5.16 14.14 -4.52 14.14 -3.87 14.14 -3.23 14.14 -2.58 14.14 -1.94 14.14 -1.29 14.14 -0.65 14.14 0 9.06 0.65 7.95 1.29 6.84 1.94 5.74 2.58 4.63 3.23 3.52 3.87 2.41 4.52 1.31 5.16 0.2 5.81 -0.91 6.45 -2.02 7.1 -3.12 7.75 -4.23 8.39 -5.34 9.04 -6.45 9.68 -7.55 10.33 -8.66 10.97 -9.77 11.62 -10.88 12.26 -11.98 12.91 -13.09 13.56 -14.2 14.2 -15.31 14.85 -16.41 15.49 -17.52 16.14 -18.63 16.78 -19.74 17.43 -20.84 18.07 -21.95 18.72 -23.06 19.36 -24.17 20.01 -25.27 20.66 -26.38 21.3 -26.96 21.95 -26.96 22.59 -26.96 23.24 -26.96 23.88 -26.96 24.53 -26.96 25.17 -26.96 25.82 -26.96 26.47 -26.96 27.11 -26.96 27.76 -26.96 28.4 -26.96 29.05 -26.96" class="primitive"/>
          </g>
          <g transform="translate(48.92,43.04)" id="img-f4d995d7-94" class="color_Γ_2" stroke="#D4CA3A" stroke-dasharray="none">
            <path fill="none" d="M-29.05,10.67 L -28.4 10.67 -27.76 10.67 -27.11 10.67 -26.47 10.67 -25.82 10.67 -25.17 10.67 -24.53 10.67 -23.88 10.67 -23.24 10.67 -22.59 10.67 -21.95 10.67 -21.3 10.67 -20.66 10.67 -20.01 10.67 -19.36 10.67 -18.72 10.67 -18.07 10.67 -17.43 10.67 -16.78 10.67 -16.14 10.67 -15.49 10.67 -14.85 10.67 -14.2 10.67 -13.56 10.67 -12.91 10.67 -12.26 10.67 -11.62 10.67 -10.97 10.67 -10.33 10.67 -9.68 10.67 -9.04 10.67 -8.39 10.67 -7.75 10.67 -7.1 10.67 -6.45 10.67 -5.81 10.67 -5.16 10.67 -4.52 10.67 -3.87 10.67 -3.23 10.67 -2.58 10.67 -1.94 10.67 -1.29 10.67 -0.65 10.67 0 5.35 0.65 4.08 1.29 2.76 1.94 1.39 2.58 -0.04 3.23 -1.54 3.87 -3.11 4.52 -4.76 5.16 -6.5 5.81 -8.35 6.45 -10.31 7.1 -12.41 7.75 -14.65 8.39 -17.08 9.04 -19.71 9.68 -22.58 10.33 -25.73 10.97 -29.22 11.62 -30.43 12.26 -30.43 12.91 -30.43 13.56 -30.43 14.2 -30.43 14.85 -30.43 15.49 -30.43 16.14 -30.43 16.78 -30.43 17.43 -30.43 18.07 -30.43 18.72 -30.43 19.36 -30.43 20.01 -30.43 20.66 -30.43 21.3 10.67 21.95 10.67 22.59 10.67 23.24 10.67 23.88 10.67 24.53 10.67 25.17 10.67 25.82 10.67 26.47 10.67 27.11 10.67 27.76 10.67 28.4 10.67 29.05 10.67" class="primitive"/>
          </g>
          <g transform="translate(48.92,49.81)" id="img-f4d995d7-95" class="color_Γ_3" stroke="#FF6DAE" stroke-dasharray="none">
            <path fill="none" d="M-29.05,3.9 L -28.4 3.9 -27.76 3.9 -27.11 3.9 -26.47 3.9 -25.82 3.9 -25.17 3.9 -24.53 3.9 -23.88 3.9 -23.24 3.9 -22.59 3.9 -21.95 3.9 -21.3 3.9 -20.66 3.9 -20.01 3.9 -19.36 3.9 -18.72 3.9 -18.07 3.9 -17.43 3.9 -16.78 3.9 -16.14 3.9 -15.49 3.9 -14.85 3.9 -14.2 3.9 -13.56 3.9 -12.91 3.9 -12.26 3.9 -11.62 3.9 -10.97 3.9 -10.33 3.9 -9.68 3.9 -9.04 3.9 -8.39 3.9 -7.75 3.9 -7.1 3.9 -6.45 3.9 -5.81 3.9 -5.16 3.9 -4.52 3.9 -3.87 3.9 -3.23 3.9 -2.58 3.9 -1.94 3.9 -1.29 3.9 -0.65 3.9 0 -0.97 0.65 -2.05 1.29 -3.17 1.94 -4.31 2.58 -5.49 3.23 -6.73 3.87 -8.04 4.52 -9.46 5.16 -11.02 5.81 -12.79 6.45 -14.84 7.1 -17.33 7.75 -20.52 8.39 -24.9 9.04 -31.57 9.68 -37.2 10.33 -37.2 10.97 -37.2 11.62 3.9 12.26 3.9 12.91 3.9 13.56 3.9 14.2 3.9 14.85 3.9 15.49 3.9 16.14 3.9 16.78 3.9 17.43 3.9 18.07 3.9 18.72 3.9 19.36 3.9 20.01 3.9 20.66 3.9 21.3 3.9 21.95 3.9 22.59 3.9 23.24 3.9 23.88 3.9 24.53 3.9 25.17 3.9 25.82 3.9 26.47 3.9 27.11 3.9 27.76 3.9 28.4 3.9 29.05 3.9" class="primitive"/>
          </g>
          <g transform="translate(48.92,52.9)" id="img-f4d995d7-96" class="color_Γ_4" stroke="#00B78D" stroke-dasharray="none">
            <path fill="none" d="M-29.05,0.82 L -28.4 0.82 -27.76 0.82 -27.11 0.82 -26.47 0.82 -25.82 0.82 -25.17 0.82 -24.53 0.82 -23.88 0.82 -23.24 0.82 -22.59 0.82 -21.95 0.82 -21.3 0.82 -20.66 0.82 -20.01 0.82 -19.36 0.82 -18.72 0.82 -18.07 0.82 -17.43 0.82 -16.78 0.82 -16.14 0.82 -15.49 0.82 -14.85 0.82 -14.2 0.82 -13.56 0.82 -12.91 0.82 -12.26 0.82 -11.62 0.82 -10.97 0.82 -10.33 0.82 -9.68 0.82 -9.04 0.82 -8.39 0.82 -7.75 0.82 -7.1 0.82 -6.45 0.82 -5.81 0.82 -5.16 0.82 -4.52 0.82 -3.87 0.82 -3.23 0.82 -2.58 0.82 -1.94 0.82 -1.29 0.82 -0.65 0.82 0 0.82 0.65 0.82 1.29 -4.18 1.94 -4.66 2.58 -5.08 3.23 -5.43 3.87 -5.74 4.52 -6.01 5.16 -6.24 5.81 -6.47 6.45 -6.73 7.1 -7.09 7.75 -7.75 8.39 0.82 9.04 0.82 9.68 0.82 10.33 0.82 10.97 0.82 11.62 0.82 12.26 0.82 12.91 0.82 13.56 0.82 14.2 0.82 14.85 0.82 15.49 0.82 16.14 0.82 16.78 0.82 17.43 0.82 18.07 0.82 18.72 0.82 19.36 0.82 20.01 0.82 20.66 0.82 21.3 0.82 21.95 0.82 22.59 0.82 23.24 0.82 23.88 0.82 24.53 0.82 25.17 0.82 25.82 0.82 26.47 0.82 27.11 0.82 27.76 0.82 28.4 0.82 29.05 0.82" class="primitive"/>
          </g>
          <g transform="translate(48.92,53.72)" id="img-f4d995d7-97" class="color_Γ_5" stroke="#BEA9FF" stroke-dasharray="none">
            <path fill="none" d="M-29.05,-0 L -28.4 -0 -27.76 -0 -27.11 -0 -26.47 -0 -25.82 -0 -25.17 -0 -24.53 -0 -23.88 -0 -23.24 -0 -22.59 -0 -21.95 -0 -21.3 -0 -20.66 -0 -20.01 -0 -19.36 -0 -18.72 -0 -18.07 -0 -17.43 -0 -16.78 -0 -16.14 -0 -15.49 -0 -14.85 -0 -14.2 -0 -13.56 -0 -12.91 -0 -12.26 -0 -11.62 -0 -10.97 -0 -10.33 -0 -9.68 -0 -9.04 -0 -8.39 -0 -7.75 -0 -7.1 -0 -6.45 -0 -5.81 -0 -5.16 -0 -4.52 -0 -3.87 -0 -3.23 -0 -2.58 -0 -1.94 -0 -1.29 -0 -0.65 -0 0 -0 0.65 -0 1.29 -0 1.94 -0 2.58 -0 3.23 -0 3.87 -0 4.52 -0 5.16 -0 5.81 -0 6.45 -0 7.1 -0 7.75 -0 8.39 -0 9.04 -0 9.68 -0 10.33 -0 10.97 -0 11.62 -0 12.26 -0 12.91 -0 13.56 -0 14.2 -0 14.85 -0 15.49 -0 16.14 -0 16.78 -0 17.43 -0 18.07 -0 18.72 -0 19.36 -0 20.01 -0 20.66 -0 21.3 -0 21.95 -0 22.59 -0 23.24 -0 23.88 -0 24.53 -0 25.17 -0 25.82 -0 26.47 -0 27.11 -0 27.76 -0 28.4 -0 29.05 -0" class="primitive"/>
          </g>
        </g>
      </g>
    </g>
  </g>
  <g class="guide ylabels" font-size="2.82" font-family="'PT Sans Caption','Helvetica Neue','Helvetica',sans-serif" fill="#6C606B" id="img-f4d995d7-98">
    <g transform="translate(16.87,53.72)" id="img-f4d995d7-99">
      <g class="primitive">
        <text text-anchor="end" dy="0.35em">0.0</text>
      </g>
    </g>
    <g transform="translate(16.87,33.16)" id="img-f4d995d7-100">
      <g class="primitive">
        <text text-anchor="end" dy="0.35em">0.5</text>
      </g>
    </g>
    <g transform="translate(16.87,12.61)" id="img-f4d995d7-101">
      <g class="primitive">
        <text text-anchor="end" dy="0.35em">1.0</text>
      </g>
    </g>
  </g>
  <g font-size="3.88" font-family="'PT Sans','Helvetica Neue','Helvetica',sans-serif" fill="#564A55" stroke="#000000" stroke-opacity="0.000" id="img-f4d995d7-102">
    <g transform="translate(9.85,33.16)" id="img-f4d995d7-103">
      <g class="primitive">
        <text text-anchor="end" dy="0.35em">Γ</text>
      </g>
    </g>
  </g>
  <g font-size="3.88" font-family="'PT Sans','Helvetica Neue','Helvetica',sans-serif" fill="#564A55" stroke="#000000" stroke-opacity="0.000" id="img-f4d995d7-104">
    <g transform="translate(52.15,5)" id="img-f4d995d7-105">
      <g class="primitive">
        <text text-anchor="middle" dy="0.6em">Bank A</text>
      </g>
    </g>
  </g>
</g>
<defs>
  <clipPath id="img-f4d995d7-19">
    <path d="M18.63,85.61 L 87.03 85.61 87.03 130.72 18.63 130.72" />
  </clipPath>
  <clipPath id="img-f4d995d7-76">
    <path d="M17.87,10.61 L 86.42 10.61 86.42 55.72 17.87 55.72" />
  </clipPath>
</defs>
</svg>
